<svg width="60" height="70" viewBox="0 0 60 70" fill="none" xmlns="http://www.w3.org/2000/svg">
<path fill-rule="evenodd" clip-rule="evenodd" d="M10.8333 19.3334C10.8333 8.7479 19.4145 0.166687 30 0.166687C40.5855 0.166687 49.1667 8.7479 49.1667 19.3334V23.0457C49.1667 23.2684 49.1376 23.4843 49.0829 23.6898C53.8699 25.4488 57.6011 29.3106 59.1843 34.1831C60 36.6936 60 39.7957 60 46C60 52.2043 60 55.3064 59.1843 57.817C57.5356 62.8909 53.5576 66.869 48.4836 68.5176C45.9731 69.3334 42.8709 69.3334 36.6667 69.3334H23.3333C17.129 69.3334 14.0269 69.3334 11.5164 68.5176C6.44242 66.869 2.46436 62.8909 0.815725 57.817C0 55.3064 0 52.2043 0 46C0 39.7957 0 36.6936 0.815725 34.1831C2.39888 29.3106 6.1301 25.4488 10.9171 23.6898C10.8624 23.4843 10.8333 23.2684 10.8333 23.0457V19.3334ZM15.8333 22.7805C17.7324 22.6667 20.1157 22.6667 23.3333 22.6667H36.6667C39.8843 22.6667 42.2676 22.6667 44.1667 22.7805V19.3334C44.1667 11.5093 37.824 5.16669 30 5.16669C22.176 5.16669 15.8333 11.5093 15.8333 19.3334V22.7805ZM30 36.8334C31.3807 36.8334 32.5 37.9526 32.5 39.3334V52.6667C32.5 54.0474 31.3807 55.1667 30 55.1667C28.6193 55.1667 27.5 54.0474 27.5 52.6667V39.3334C27.5 37.9526 28.6193 36.8334 30 36.8334Z" fill="url(#paint0_linear_772_36)"/>
<defs>
<linearGradient id="paint0_linear_772_36" x1="2.41109e-07" y1="69.3334" x2="69.5049" y2="11.6119" gradientUnits="userSpaceOnUse">
<stop stop-color="#27E5FF"/>
<stop offset="1" stop-color="#6A27FF"/>
</linearGradient>
</defs>
</svg>
