<svg width="80" height="80" viewBox="0 0 80 80" fill="none" xmlns="http://www.w3.org/2000/svg">
<path fill-rule="evenodd" clip-rule="evenodd" d="M28.1187 9.18857C31.53 -2.76452 48.4698 -2.76452 51.8811 9.18857C52.9704 13.0058 56.8922 15.27 60.7426 14.3048C72.7999 11.2825 81.2699 25.9528 72.6238 34.8836C69.8627 37.7356 69.8627 42.264 72.6238 45.1161C81.2699 54.0468 72.7999 68.7172 60.7426 65.6949C56.8922 64.7297 52.9704 66.9939 51.8811 70.8111C48.4698 82.7642 31.53 82.7642 28.1187 70.8111C27.0293 66.9939 23.1076 64.7297 19.2571 65.6949C7.19983 68.7172 -1.27011 54.0468 7.37594 45.1161C10.137 42.264 10.137 37.7356 7.37594 34.8836C-1.2701 25.9528 7.19983 11.2825 19.2571 14.3048C23.1076 15.27 27.0293 13.0058 28.1187 9.18857ZM55.2539 31.6003C56.1378 30.5396 55.9945 28.9632 54.9338 28.0793C53.8731 27.1954 52.2967 27.3387 51.4128 28.3994L39.8676 42.2536C38.6316 43.7368 37.8726 44.6382 37.2473 45.2028C36.9573 45.4647 36.7853 45.569 36.7029 45.6089C36.6861 45.617 36.6742 45.6219 36.6667 45.6247C36.6591 45.6219 36.6472 45.617 36.6304 45.6089C36.548 45.569 36.376 45.4647 36.086 45.2028C35.4607 44.6382 34.7017 43.7368 33.4657 42.2536L28.5872 36.3994C27.7033 35.3387 26.1269 35.1954 25.0662 36.0793C24.0055 36.9632 23.8622 38.5396 24.7461 39.6003L29.7311 45.5823C30.826 46.8965 31.813 48.0812 32.735 48.9138C33.7381 49.8196 35.0017 50.6264 36.6667 50.6264C38.3316 50.6264 39.5952 49.8196 40.5983 48.9138C41.5203 48.0812 42.5073 46.8965 43.6022 45.5824L55.2539 31.6003Z" fill="url(#paint0_linear_330_423)"/>
<defs>
<linearGradient id="paint0_linear_330_423" x1="3.84113" y1="79.7759" x2="84.3869" y2="9.67849" gradientUnits="userSpaceOnUse">
<stop stop-color="#27E5FF"/>
<stop offset="1" stop-color="#6A27FF"/>
</linearGradient>
</defs>
</svg>
