<svg width="68" height="68" viewBox="0 0 68 68" fill="none" xmlns="http://www.w3.org/2000/svg">
<path d="M57.3135 9.47467C55.2694 8.83033 52.9724 8.51749 50.3185 8.35373C47.2851 8.16655 43.5987 8.16656 39.0761 8.16657H28.8677C23.5231 8.16654 19.3332 8.16653 15.9859 8.48479C12.5741 8.80919 9.78038 9.4818 7.31764 10.991C4.73866 12.5714 2.57033 14.7397 0.989932 17.3187C0.933942 17.41 0.879103 17.5019 0.825391 17.5942C1.08304 12.7837 1.75599 9.59765 3.5137 7.07546C4.43354 5.75556 5.54691 4.59483 6.81295 3.63587C10.7331 0.666565 16.3251 0.666565 27.5091 0.666565H45.4048C51.0289 0.666565 53.841 0.666565 55.5881 2.48806C56.93 3.88702 57.2413 5.94082 57.3135 9.47467Z" fill="url(#paint0_linear_772_51)"/>
<path d="M3.12122 18.6249C0.665222 22.6327 0.665222 28.0885 0.665222 38.9999C0.665222 49.9113 0.665222 55.3671 3.12122 59.3749C4.49548 61.6175 6.38099 63.503 8.62358 64.8772C12.6314 67.3332 18.0871 67.3332 28.9986 67.3332H38.9986C49.91 67.3332 55.3657 67.3332 59.3735 64.8772C61.6161 63.503 63.5016 61.6175 64.8759 59.3749C66.4889 56.7427 67.0425 53.4861 67.2326 48.4697H46.1201C39.7186 48.4697 34.5292 43.2802 34.5292 36.8788C34.5292 30.4773 39.7186 25.2878 46.1201 25.2878H66.9242C66.5901 22.529 65.9821 20.4301 64.8759 18.6249C63.5016 16.3823 61.6161 14.4968 59.3735 13.1226C58.7351 12.7313 58.06 12.4024 57.3319 12.1259C53.4892 10.6666 48.1719 10.6666 38.9986 10.6666H28.9986C18.0871 10.6666 12.6314 10.6666 8.62358 13.1226C6.38099 14.4968 4.49548 16.3823 3.12122 18.6249Z" fill="url(#paint1_linear_772_51)"/>
<path fill-rule="evenodd" clip-rule="evenodd" d="M67.2582 30.2878H46.1201C42.48 30.2878 39.5292 33.2387 39.5292 36.8788C39.5292 40.5188 42.48 43.4697 46.1201 43.4697H67.3241C67.3319 42.0891 67.3319 40.6034 67.3319 38.9999C67.3319 35.6091 67.3319 32.7452 67.2582 30.2878ZM46.1201 34.3787C44.7393 34.3787 43.6201 35.498 43.6201 36.8787C43.6201 38.2595 44.7393 39.3787 46.1201 39.3787H55.211C56.5917 39.3787 57.711 38.2595 57.711 36.8787C57.711 35.498 56.5917 34.3787 55.211 34.3787H46.1201Z" fill="url(#paint2_linear_772_51)"/>
<defs>
<linearGradient id="paint0_linear_772_51" x1="0.665222" y1="67.3332" x2="68.7524" y2="2.15041" gradientUnits="userSpaceOnUse">
<stop stop-color="#27E5FF"/>
<stop offset="1" stop-color="#6A27FF"/>
</linearGradient>
<linearGradient id="paint1_linear_772_51" x1="0.665222" y1="67.3332" x2="68.7524" y2="2.15041" gradientUnits="userSpaceOnUse">
<stop stop-color="#27E5FF"/>
<stop offset="1" stop-color="#6A27FF"/>
</linearGradient>
<linearGradient id="paint2_linear_772_51" x1="0.665222" y1="67.3332" x2="68.7524" y2="2.15041" gradientUnits="userSpaceOnUse">
<stop stop-color="#27E5FF"/>
<stop offset="1" stop-color="#6A27FF"/>
</linearGradient>
</defs>
</svg>
